<mxfile host="app.diagrams.net" agent="Mozilla/5.0 (Windows NT 10.0; Win64; x64) AppleWebKit/537.36 (KHTML, like Gecko) Chrome/136.0.0.0 Safari/537.36 Edg/136.0.0.0" version="27.1.1">
  <diagram name="Page-1" id="1W8SEzvjpDs4IBv9Bv3y">
    <mxGraphModel dx="909" dy="1541" grid="1" gridSize="10" guides="1" tooltips="1" connect="1" arrows="1" fold="1" page="1" pageScale="1" pageWidth="850" pageHeight="1100" math="0" shadow="0">
      <root>
        <mxCell id="0" />
        <mxCell id="1" parent="0" />
        <mxCell id="ZdKOM8unGtF_lBuKlfcn-97" style="edgeStyle=orthogonalEdgeStyle;rounded=0;orthogonalLoop=1;jettySize=auto;html=1;exitX=0;exitY=1;exitDx=0;exitDy=0;entryX=1;entryY=0;entryDx=0;entryDy=0;" parent="1" source="IYp7rGb173UTTwIkMacJ-1" target="IYp7rGb173UTTwIkMacJ-53" edge="1">
          <mxGeometry relative="1" as="geometry" />
        </mxCell>
        <mxCell id="ZdKOM8unGtF_lBuKlfcn-98" style="edgeStyle=orthogonalEdgeStyle;rounded=0;orthogonalLoop=1;jettySize=auto;html=1;exitX=1;exitY=0;exitDx=0;exitDy=0;entryX=0.5;entryY=1;entryDx=0;entryDy=0;" parent="1" source="IYp7rGb173UTTwIkMacJ-1" target="IYp7rGb173UTTwIkMacJ-20" edge="1">
          <mxGeometry relative="1" as="geometry" />
        </mxCell>
        <mxCell id="ZdKOM8unGtF_lBuKlfcn-99" style="edgeStyle=orthogonalEdgeStyle;rounded=0;orthogonalLoop=1;jettySize=auto;html=1;exitX=0.25;exitY=0;exitDx=0;exitDy=0;entryX=0.5;entryY=1;entryDx=0;entryDy=0;" parent="1" source="IYp7rGb173UTTwIkMacJ-1" target="IYp7rGb173UTTwIkMacJ-21" edge="1">
          <mxGeometry relative="1" as="geometry" />
        </mxCell>
        <mxCell id="IYp7rGb173UTTwIkMacJ-1" value="member" style="rounded=0;whiteSpace=wrap;html=1;" parent="1" vertex="1">
          <mxGeometry x="240" y="70" width="120" height="60" as="geometry" />
        </mxCell>
        <mxCell id="IYp7rGb173UTTwIkMacJ-39" style="edgeStyle=orthogonalEdgeStyle;rounded=0;orthogonalLoop=1;jettySize=auto;html=1;exitX=0;exitY=0;exitDx=0;exitDy=0;entryX=1;entryY=0.5;entryDx=0;entryDy=0;" parent="1" source="IYp7rGb173UTTwIkMacJ-3" target="IYp7rGb173UTTwIkMacJ-33" edge="1">
          <mxGeometry relative="1" as="geometry" />
        </mxCell>
        <mxCell id="IYp7rGb173UTTwIkMacJ-43" style="edgeStyle=orthogonalEdgeStyle;rounded=0;orthogonalLoop=1;jettySize=auto;html=1;exitX=0.5;exitY=1;exitDx=0;exitDy=0;entryX=0.5;entryY=0;entryDx=0;entryDy=0;" parent="1" source="IYp7rGb173UTTwIkMacJ-3" target="IYp7rGb173UTTwIkMacJ-42" edge="1">
          <mxGeometry relative="1" as="geometry" />
        </mxCell>
        <mxCell id="ZdKOM8unGtF_lBuKlfcn-112" style="edgeStyle=orthogonalEdgeStyle;rounded=0;orthogonalLoop=1;jettySize=auto;html=1;exitX=0;exitY=0.25;exitDx=0;exitDy=0;entryX=1;entryY=0.5;entryDx=0;entryDy=0;" parent="1" source="IYp7rGb173UTTwIkMacJ-3" target="IYp7rGb173UTTwIkMacJ-38" edge="1">
          <mxGeometry relative="1" as="geometry" />
        </mxCell>
        <mxCell id="ZdKOM8unGtF_lBuKlfcn-113" style="edgeStyle=orthogonalEdgeStyle;rounded=0;orthogonalLoop=1;jettySize=auto;html=1;exitX=0;exitY=0.5;exitDx=0;exitDy=0;entryX=1;entryY=0.5;entryDx=0;entryDy=0;" parent="1" source="IYp7rGb173UTTwIkMacJ-3" target="6uXAJhKeQOaQSC9MLbms-52" edge="1">
          <mxGeometry relative="1" as="geometry" />
        </mxCell>
        <mxCell id="6uXAJhKeQOaQSC9MLbms-120" style="edgeStyle=orthogonalEdgeStyle;rounded=0;orthogonalLoop=1;jettySize=auto;html=1;exitX=0;exitY=1;exitDx=0;exitDy=0;entryX=1;entryY=0;entryDx=0;entryDy=0;" parent="1" source="IYp7rGb173UTTwIkMacJ-3" target="6uXAJhKeQOaQSC9MLbms-119" edge="1">
          <mxGeometry relative="1" as="geometry" />
        </mxCell>
        <mxCell id="6uXAJhKeQOaQSC9MLbms-123" style="edgeStyle=orthogonalEdgeStyle;rounded=0;orthogonalLoop=1;jettySize=auto;html=1;exitX=0.5;exitY=0;exitDx=0;exitDy=0;entryX=0.5;entryY=1;entryDx=0;entryDy=0;" parent="1" source="IYp7rGb173UTTwIkMacJ-3" target="6uXAJhKeQOaQSC9MLbms-122" edge="1">
          <mxGeometry relative="1" as="geometry" />
        </mxCell>
        <mxCell id="ZdKOM8unGtF_lBuKlfcn-132" style="edgeStyle=orthogonalEdgeStyle;rounded=0;orthogonalLoop=1;jettySize=auto;html=1;exitX=0.75;exitY=0;exitDx=0;exitDy=0;" parent="1" source="IYp7rGb173UTTwIkMacJ-3" target="IYp7rGb173UTTwIkMacJ-37" edge="1">
          <mxGeometry relative="1" as="geometry" />
        </mxCell>
        <mxCell id="IYp7rGb173UTTwIkMacJ-3" value="Books" style="rounded=0;whiteSpace=wrap;html=1;" parent="1" vertex="1">
          <mxGeometry x="1070" y="15" width="130" height="85" as="geometry" />
        </mxCell>
        <mxCell id="IYp7rGb173UTTwIkMacJ-102" style="edgeStyle=orthogonalEdgeStyle;rounded=0;orthogonalLoop=1;jettySize=auto;html=1;exitX=1;exitY=0.5;exitDx=0;exitDy=0;" parent="1" source="IYp7rGb173UTTwIkMacJ-4" target="IYp7rGb173UTTwIkMacJ-70" edge="1">
          <mxGeometry relative="1" as="geometry" />
        </mxCell>
        <mxCell id="ZdKOM8unGtF_lBuKlfcn-130" style="edgeStyle=orthogonalEdgeStyle;rounded=0;orthogonalLoop=1;jettySize=auto;html=1;exitX=0.75;exitY=0;exitDx=0;exitDy=0;entryX=0;entryY=1;entryDx=0;entryDy=0;" parent="1" source="IYp7rGb173UTTwIkMacJ-4" target="IYp7rGb173UTTwIkMacJ-64" edge="1">
          <mxGeometry relative="1" as="geometry" />
        </mxCell>
        <mxCell id="IYp7rGb173UTTwIkMacJ-4" value="Fines" style="rounded=0;whiteSpace=wrap;html=1;" parent="1" vertex="1">
          <mxGeometry x="1100" y="305" width="110" height="50" as="geometry" />
        </mxCell>
        <mxCell id="IYp7rGb173UTTwIkMacJ-75" style="edgeStyle=orthogonalEdgeStyle;rounded=0;orthogonalLoop=1;jettySize=auto;html=1;exitX=0.5;exitY=0;exitDx=0;exitDy=0;entryX=0.5;entryY=1;entryDx=0;entryDy=0;" parent="1" source="IYp7rGb173UTTwIkMacJ-5" target="IYp7rGb173UTTwIkMacJ-74" edge="1">
          <mxGeometry relative="1" as="geometry" />
        </mxCell>
        <mxCell id="IYp7rGb173UTTwIkMacJ-130" style="edgeStyle=orthogonalEdgeStyle;rounded=0;orthogonalLoop=1;jettySize=auto;html=1;exitX=0.25;exitY=0;exitDx=0;exitDy=0;entryX=1;entryY=1;entryDx=0;entryDy=0;" parent="1" source="IYp7rGb173UTTwIkMacJ-5" target="IYp7rGb173UTTwIkMacJ-78" edge="1">
          <mxGeometry relative="1" as="geometry" />
        </mxCell>
        <mxCell id="IYp7rGb173UTTwIkMacJ-5" value="Transactions" style="rounded=0;whiteSpace=wrap;html=1;" parent="1" vertex="1">
          <mxGeometry x="580" y="130" width="160" height="90" as="geometry" />
        </mxCell>
        <mxCell id="IYp7rGb173UTTwIkMacJ-143" style="edgeStyle=orthogonalEdgeStyle;rounded=0;orthogonalLoop=1;jettySize=auto;html=1;exitX=0.5;exitY=1;exitDx=0;exitDy=0;entryX=0;entryY=0.5;entryDx=0;entryDy=0;" parent="1" source="IYp7rGb173UTTwIkMacJ-6" target="IYp7rGb173UTTwIkMacJ-142" edge="1">
          <mxGeometry relative="1" as="geometry" />
        </mxCell>
        <mxCell id="6uXAJhKeQOaQSC9MLbms-92" style="edgeStyle=orthogonalEdgeStyle;rounded=0;orthogonalLoop=1;jettySize=auto;html=1;exitX=0;exitY=1;exitDx=0;exitDy=0;entryX=0.5;entryY=0;entryDx=0;entryDy=0;" parent="1" source="IYp7rGb173UTTwIkMacJ-6" target="6uXAJhKeQOaQSC9MLbms-91" edge="1">
          <mxGeometry relative="1" as="geometry" />
        </mxCell>
        <mxCell id="IYp7rGb173UTTwIkMacJ-6" value="Author" style="rounded=0;whiteSpace=wrap;html=1;" parent="1" vertex="1">
          <mxGeometry x="1430" y="150" width="110" height="50" as="geometry" />
        </mxCell>
        <mxCell id="IYp7rGb173UTTwIkMacJ-20" value="&#xa;RegistrationDate&#xa;&#xa;" style="ellipse;whiteSpace=wrap;html=1;" parent="1" vertex="1">
          <mxGeometry x="350" y="-35" width="110" height="50" as="geometry" />
        </mxCell>
        <mxCell id="IYp7rGb173UTTwIkMacJ-21" value="&lt;u&gt;MemberID&lt;/u&gt;" style="ellipse;whiteSpace=wrap;html=1;" parent="1" vertex="1">
          <mxGeometry x="240" y="-25" width="80" height="50" as="geometry" />
        </mxCell>
        <mxCell id="IYp7rGb173UTTwIkMacJ-22" value="Email" style="ellipse;whiteSpace=wrap;html=1;" parent="1" vertex="1">
          <mxGeometry x="15" y="-25" width="70" height="40" as="geometry" />
        </mxCell>
        <mxCell id="IYp7rGb173UTTwIkMacJ-23" value="Name" style="ellipse;whiteSpace=wrap;html=1;" parent="1" vertex="1">
          <mxGeometry x="100" y="-50" width="60" height="40" as="geometry" />
        </mxCell>
        <mxCell id="IYp7rGb173UTTwIkMacJ-33" value="&lt;u&gt;BookID&lt;/u&gt;" style="ellipse;whiteSpace=wrap;html=1;" parent="1" vertex="1">
          <mxGeometry x="945" y="-50" width="70" height="40" as="geometry" />
        </mxCell>
        <mxCell id="IYp7rGb173UTTwIkMacJ-37" value="Title" style="ellipse;whiteSpace=wrap;html=1;" parent="1" vertex="1">
          <mxGeometry x="1155" y="-65" width="70" height="40" as="geometry" />
        </mxCell>
        <mxCell id="IYp7rGb173UTTwIkMacJ-38" value="ISBN" style="ellipse;whiteSpace=wrap;html=1;" parent="1" vertex="1">
          <mxGeometry x="955" y="10" width="70" height="40" as="geometry" />
        </mxCell>
        <mxCell id="IYp7rGb173UTTwIkMacJ-42" value="AvailabilityStatus" style="ellipse;whiteSpace=wrap;html=1;" parent="1" vertex="1">
          <mxGeometry x="1015" y="140" width="130" height="50" as="geometry" />
        </mxCell>
        <mxCell id="IYp7rGb173UTTwIkMacJ-49" style="edgeStyle=orthogonalEdgeStyle;rounded=0;orthogonalLoop=1;jettySize=auto;html=1;exitX=0.5;exitY=0;exitDx=0;exitDy=0;entryX=1;entryY=0.5;entryDx=0;entryDy=0;" parent="1" source="IYp7rGb173UTTwIkMacJ-47" target="IYp7rGb173UTTwIkMacJ-23" edge="1">
          <mxGeometry relative="1" as="geometry" />
        </mxCell>
        <mxCell id="ZdKOM8unGtF_lBuKlfcn-95" style="edgeStyle=orthogonalEdgeStyle;rounded=0;orthogonalLoop=1;jettySize=auto;html=1;exitX=0;exitY=0.5;exitDx=0;exitDy=0;entryX=1;entryY=1;entryDx=0;entryDy=0;" parent="1" source="IYp7rGb173UTTwIkMacJ-47" target="IYp7rGb173UTTwIkMacJ-22" edge="1">
          <mxGeometry relative="1" as="geometry" />
        </mxCell>
        <mxCell id="ZdKOM8unGtF_lBuKlfcn-96" style="edgeStyle=orthogonalEdgeStyle;rounded=0;orthogonalLoop=1;jettySize=auto;html=1;exitX=0;exitY=1;exitDx=0;exitDy=0;entryX=1;entryY=0.5;entryDx=0;entryDy=0;" parent="1" source="IYp7rGb173UTTwIkMacJ-47" target="ZdKOM8unGtF_lBuKlfcn-4" edge="1">
          <mxGeometry relative="1" as="geometry" />
        </mxCell>
        <mxCell id="IYp7rGb173UTTwIkMacJ-47" value="MemberDetails" style="ellipse;whiteSpace=wrap;html=1;" parent="1" vertex="1">
          <mxGeometry x="85" y="30" width="110" height="50" as="geometry" />
        </mxCell>
        <mxCell id="IYp7rGb173UTTwIkMacJ-48" style="edgeStyle=orthogonalEdgeStyle;rounded=0;orthogonalLoop=1;jettySize=auto;html=1;entryX=0.985;entryY=0.28;entryDx=0;entryDy=0;entryPerimeter=0;" parent="1" source="IYp7rGb173UTTwIkMacJ-1" target="IYp7rGb173UTTwIkMacJ-47" edge="1">
          <mxGeometry relative="1" as="geometry" />
        </mxCell>
        <mxCell id="IYp7rGb173UTTwIkMacJ-63" style="edgeStyle=orthogonalEdgeStyle;rounded=0;orthogonalLoop=1;jettySize=auto;html=1;exitX=0;exitY=1;exitDx=0;exitDy=0;" parent="1" source="IYp7rGb173UTTwIkMacJ-53" target="IYp7rGb173UTTwIkMacJ-55" edge="1">
          <mxGeometry relative="1" as="geometry" />
        </mxCell>
        <mxCell id="IYp7rGb173UTTwIkMacJ-53" value="Loan History" style="ellipse;whiteSpace=wrap;html=1;" parent="1" vertex="1">
          <mxGeometry x="80" y="130" width="110" height="50" as="geometry" />
        </mxCell>
        <mxCell id="IYp7rGb173UTTwIkMacJ-55" value="Overdue Satuts" style="ellipse;whiteSpace=wrap;html=1;" parent="1" vertex="1">
          <mxGeometry y="245" width="100" height="40" as="geometry" />
        </mxCell>
        <mxCell id="IYp7rGb173UTTwIkMacJ-58" value="Return Date" style="ellipse;whiteSpace=wrap;html=1;" parent="1" vertex="1">
          <mxGeometry x="102.59" y="220" width="70" height="40" as="geometry" />
        </mxCell>
        <mxCell id="IYp7rGb173UTTwIkMacJ-59" value="Books Borrowed" style="ellipse;whiteSpace=wrap;html=1;" parent="1" vertex="1">
          <mxGeometry x="172.59" y="210" width="100" height="40" as="geometry" />
        </mxCell>
        <mxCell id="IYp7rGb173UTTwIkMacJ-60" style="edgeStyle=orthogonalEdgeStyle;rounded=0;orthogonalLoop=1;jettySize=auto;html=1;exitX=1;exitY=0.5;exitDx=0;exitDy=0;entryX=0.648;entryY=0.09;entryDx=0;entryDy=0;entryPerimeter=0;" parent="1" source="IYp7rGb173UTTwIkMacJ-53" target="IYp7rGb173UTTwIkMacJ-59" edge="1">
          <mxGeometry relative="1" as="geometry" />
        </mxCell>
        <mxCell id="IYp7rGb173UTTwIkMacJ-61" style="edgeStyle=orthogonalEdgeStyle;rounded=0;orthogonalLoop=1;jettySize=auto;html=1;entryX=0.36;entryY=0.11;entryDx=0;entryDy=0;entryPerimeter=0;" parent="1" source="IYp7rGb173UTTwIkMacJ-53" target="IYp7rGb173UTTwIkMacJ-58" edge="1">
          <mxGeometry relative="1" as="geometry" />
        </mxCell>
        <mxCell id="IYp7rGb173UTTwIkMacJ-64" value="&lt;u&gt;FineID&lt;/u&gt;" style="ellipse;whiteSpace=wrap;html=1;" parent="1" vertex="1">
          <mxGeometry x="1180" y="220" width="70" height="40" as="geometry" />
        </mxCell>
        <mxCell id="IYp7rGb173UTTwIkMacJ-70" value="Paid_Stauts" style="ellipse;whiteSpace=wrap;html=1;" parent="1" vertex="1">
          <mxGeometry x="1265" y="340" width="110" height="50" as="geometry" />
        </mxCell>
        <mxCell id="IYp7rGb173UTTwIkMacJ-74" value="&lt;u&gt;Transications_ID&lt;/u&gt;" style="ellipse;whiteSpace=wrap;html=1;" parent="1" vertex="1">
          <mxGeometry x="615" y="-20" width="100" height="50" as="geometry" />
        </mxCell>
        <mxCell id="IYp7rGb173UTTwIkMacJ-76" value="Due_Date" style="ellipse;whiteSpace=wrap;html=1;" parent="1" vertex="1">
          <mxGeometry x="670" y="30" width="110" height="50" as="geometry" />
        </mxCell>
        <mxCell id="IYp7rGb173UTTwIkMacJ-78" value="Transactions_Date" style="ellipse;whiteSpace=wrap;html=1;" parent="1" vertex="1">
          <mxGeometry x="520" y="20" width="110" height="50" as="geometry" />
        </mxCell>
        <mxCell id="IYp7rGb173UTTwIkMacJ-80" value="Transaction_Type" style="ellipse;whiteSpace=wrap;html=1;" parent="1" vertex="1">
          <mxGeometry x="755" y="280" width="110" height="50" as="geometry" />
        </mxCell>
        <mxCell id="IYp7rGb173UTTwIkMacJ-94" value="" style="edgeStyle=entityRelationEdgeStyle;fontSize=12;html=1;endArrow=ERoneToMany;startArrow=ERmandOne;rounded=0;exitX=0;exitY=0.5;exitDx=0;exitDy=0;entryX=1;entryY=0.5;entryDx=0;entryDy=0;" parent="1" source="IYp7rGb173UTTwIkMacJ-97" target="IYp7rGb173UTTwIkMacJ-5" edge="1">
          <mxGeometry width="100" height="100" relative="1" as="geometry">
            <mxPoint x="857.5" y="147.5" as="sourcePoint" />
            <mxPoint x="762.5" y="172.5" as="targetPoint" />
          </mxGeometry>
        </mxCell>
        <mxCell id="IYp7rGb173UTTwIkMacJ-98" value="" style="edgeStyle=entityRelationEdgeStyle;fontSize=12;html=1;endArrow=ERoneToMany;startArrow=ERmandOne;rounded=0;exitX=0;exitY=1;exitDx=0;exitDy=0;entryX=1;entryY=0.5;entryDx=0;entryDy=0;" parent="1" source="IYp7rGb173UTTwIkMacJ-97" edge="1">
          <mxGeometry width="100" height="100" relative="1" as="geometry">
            <mxPoint x="1080" y="80" as="sourcePoint" />
            <mxPoint x="930" y="150" as="targetPoint" />
          </mxGeometry>
        </mxCell>
        <mxCell id="IYp7rGb173UTTwIkMacJ-99" value="" style="edgeStyle=entityRelationEdgeStyle;fontSize=12;html=1;endArrow=ERoneToMany;startArrow=ERmandOne;rounded=0;exitX=1;exitY=0.75;exitDx=0;exitDy=0;entryX=0;entryY=0.5;entryDx=0;entryDy=0;" parent="1" source="IYp7rGb173UTTwIkMacJ-100" target="IYp7rGb173UTTwIkMacJ-4" edge="1">
          <mxGeometry width="100" height="100" relative="1" as="geometry">
            <mxPoint x="760" y="550" as="sourcePoint" />
            <mxPoint x="860" y="450" as="targetPoint" />
          </mxGeometry>
        </mxCell>
        <mxCell id="IYp7rGb173UTTwIkMacJ-101" style="edgeStyle=orthogonalEdgeStyle;rounded=0;orthogonalLoop=1;jettySize=auto;html=1;exitX=0.75;exitY=1;exitDx=0;exitDy=0;entryX=0.444;entryY=-0.024;entryDx=0;entryDy=0;entryPerimeter=0;" parent="1" source="IYp7rGb173UTTwIkMacJ-5" target="IYp7rGb173UTTwIkMacJ-80" edge="1">
          <mxGeometry relative="1" as="geometry" />
        </mxCell>
        <mxCell id="IYp7rGb173UTTwIkMacJ-103" value="" style="edgeStyle=entityRelationEdgeStyle;fontSize=12;html=1;endArrow=ERoneToMany;startArrow=ERmandOne;rounded=0;exitX=1;exitY=0.75;exitDx=0;exitDy=0;entryX=0;entryY=0.5;entryDx=0;entryDy=0;" parent="1" target="IYp7rGb173UTTwIkMacJ-100" edge="1">
          <mxGeometry width="100" height="100" relative="1" as="geometry">
            <mxPoint x="740" y="200" as="sourcePoint" />
            <mxPoint x="880" y="197.5" as="targetPoint" />
          </mxGeometry>
        </mxCell>
        <mxCell id="IYp7rGb173UTTwIkMacJ-100" value="Results in&lt;div&gt;&lt;br&gt;&lt;/div&gt;" style="rhombus;whiteSpace=wrap;html=1;" parent="1" vertex="1">
          <mxGeometry x="880" y="180" width="130" height="60" as="geometry" />
        </mxCell>
        <mxCell id="IYp7rGb173UTTwIkMacJ-104" style="edgeStyle=orthogonalEdgeStyle;rounded=0;orthogonalLoop=1;jettySize=auto;html=1;exitX=0.5;exitY=1;exitDx=0;exitDy=0;entryX=0.424;entryY=-0.04;entryDx=0;entryDy=0;entryPerimeter=0;" parent="1" source="IYp7rGb173UTTwIkMacJ-4" edge="1">
          <mxGeometry relative="1" as="geometry">
            <mxPoint x="1182.4" y="388.4000000000001" as="targetPoint" />
          </mxGeometry>
        </mxCell>
        <mxCell id="IYp7rGb173UTTwIkMacJ-105" value="" style="edgeStyle=entityRelationEdgeStyle;fontSize=12;html=1;endArrow=ERoneToMany;startArrow=ERmandOne;rounded=0;exitX=0;exitY=0.75;exitDx=0;exitDy=0;entryX=1;entryY=0.25;entryDx=0;entryDy=0;" parent="1" source="IYp7rGb173UTTwIkMacJ-107" target="IYp7rGb173UTTwIkMacJ-1" edge="1">
          <mxGeometry width="100" height="100" relative="1" as="geometry">
            <mxPoint x="430" y="420" as="sourcePoint" />
            <mxPoint x="530" y="320" as="targetPoint" />
          </mxGeometry>
        </mxCell>
        <mxCell id="IYp7rGb173UTTwIkMacJ-106" style="edgeStyle=orthogonalEdgeStyle;rounded=0;orthogonalLoop=1;jettySize=auto;html=1;exitX=0.75;exitY=0;exitDx=0;exitDy=0;entryX=0.295;entryY=0.936;entryDx=0;entryDy=0;entryPerimeter=0;" parent="1" source="IYp7rGb173UTTwIkMacJ-5" target="IYp7rGb173UTTwIkMacJ-76" edge="1">
          <mxGeometry relative="1" as="geometry" />
        </mxCell>
        <mxCell id="IYp7rGb173UTTwIkMacJ-108" value="" style="edgeStyle=entityRelationEdgeStyle;fontSize=12;html=1;endArrow=ERoneToMany;startArrow=ERmandOne;rounded=0;exitX=0;exitY=0.75;exitDx=0;exitDy=0;entryX=1;entryY=0.5;entryDx=0;entryDy=0;" parent="1" source="IYp7rGb173UTTwIkMacJ-5" target="IYp7rGb173UTTwIkMacJ-107" edge="1">
          <mxGeometry width="100" height="100" relative="1" as="geometry">
            <mxPoint x="510" y="208" as="sourcePoint" />
            <mxPoint x="350" y="95" as="targetPoint" />
          </mxGeometry>
        </mxCell>
        <mxCell id="IYp7rGb173UTTwIkMacJ-107" value="&lt;div&gt;Performs&lt;/div&gt;" style="rhombus;whiteSpace=wrap;html=1;" parent="1" vertex="1">
          <mxGeometry x="372.59000000000003" y="200" width="130" height="60" as="geometry" />
        </mxCell>
        <mxCell id="IYp7rGb173UTTwIkMacJ-110" value="" style="line;strokeWidth=2;direction=south;html=1;" parent="1" vertex="1">
          <mxGeometry x="600" y="220" width="10" height="60" as="geometry" />
        </mxCell>
        <mxCell id="IYp7rGb173UTTwIkMacJ-114" value="" style="line;strokeWidth=2;direction=south;html=1;" parent="1" vertex="1">
          <mxGeometry x="610" y="220" width="5" height="60" as="geometry" />
        </mxCell>
        <mxCell id="IYp7rGb173UTTwIkMacJ-152" style="edgeStyle=orthogonalEdgeStyle;rounded=0;orthogonalLoop=1;jettySize=auto;html=1;exitX=0;exitY=0.5;exitDx=0;exitDy=0;entryX=0.5;entryY=0;entryDx=0;entryDy=0;" parent="1" source="IYp7rGb173UTTwIkMacJ-115" edge="1">
          <mxGeometry relative="1" as="geometry">
            <mxPoint x="410" y="455" as="targetPoint" />
          </mxGeometry>
        </mxCell>
        <mxCell id="IYp7rGb173UTTwIkMacJ-154" style="edgeStyle=orthogonalEdgeStyle;rounded=0;orthogonalLoop=1;jettySize=auto;html=1;exitX=0;exitY=1;exitDx=0;exitDy=0;entryX=0.5;entryY=0;entryDx=0;entryDy=0;" parent="1" source="IYp7rGb173UTTwIkMacJ-115" edge="1">
          <mxGeometry relative="1" as="geometry">
            <mxPoint x="530" y="430" as="targetPoint" />
          </mxGeometry>
        </mxCell>
        <mxCell id="IYp7rGb173UTTwIkMacJ-157" style="edgeStyle=orthogonalEdgeStyle;rounded=0;orthogonalLoop=1;jettySize=auto;html=1;exitX=0.5;exitY=1;exitDx=0;exitDy=0;entryX=0.5;entryY=0;entryDx=0;entryDy=0;" parent="1" source="IYp7rGb173UTTwIkMacJ-115" edge="1">
          <mxGeometry relative="1" as="geometry">
            <mxPoint x="640" y="430" as="targetPoint" />
          </mxGeometry>
        </mxCell>
        <mxCell id="IYp7rGb173UTTwIkMacJ-159" style="edgeStyle=orthogonalEdgeStyle;rounded=0;orthogonalLoop=1;jettySize=auto;html=1;exitX=1;exitY=0.5;exitDx=0;exitDy=0;" parent="1" source="IYp7rGb173UTTwIkMacJ-115" edge="1">
          <mxGeometry relative="1" as="geometry">
            <mxPoint x="720" y="365" as="targetPoint" />
          </mxGeometry>
        </mxCell>
        <mxCell id="IYp7rGb173UTTwIkMacJ-115" value="d" style="ellipse;whiteSpace=wrap;html=1;aspect=fixed;" parent="1" vertex="1">
          <mxGeometry x="597.5" y="275" width="30" height="30" as="geometry" />
        </mxCell>
        <mxCell id="IYp7rGb173UTTwIkMacJ-129" style="edgeStyle=orthogonalEdgeStyle;rounded=0;orthogonalLoop=1;jettySize=auto;html=1;exitX=0.5;exitY=0;exitDx=0;exitDy=0;entryX=0.62;entryY=1.06;entryDx=0;entryDy=0;entryPerimeter=0;" parent="1" source="IYp7rGb173UTTwIkMacJ-4" edge="1">
          <mxGeometry relative="1" as="geometry">
            <mxPoint x="1132" y="262.39999999999986" as="targetPoint" />
          </mxGeometry>
        </mxCell>
        <mxCell id="IYp7rGb173UTTwIkMacJ-142" value="&lt;u&gt;Author_ID&lt;/u&gt;" style="ellipse;whiteSpace=wrap;html=1;" parent="1" vertex="1">
          <mxGeometry x="1610" y="195" width="80" height="50" as="geometry" />
        </mxCell>
        <mxCell id="IYp7rGb173UTTwIkMacJ-145" value="Email" style="ellipse;whiteSpace=wrap;html=1;" parent="1" vertex="1">
          <mxGeometry x="1600" y="135" width="70" height="40" as="geometry" />
        </mxCell>
        <mxCell id="IYp7rGb173UTTwIkMacJ-146" style="edgeStyle=orthogonalEdgeStyle;rounded=0;orthogonalLoop=1;jettySize=auto;html=1;exitX=1;exitY=0.5;exitDx=0;exitDy=0;entryX=0;entryY=0.27;entryDx=0;entryDy=0;entryPerimeter=0;" parent="1" source="IYp7rGb173UTTwIkMacJ-6" target="IYp7rGb173UTTwIkMacJ-145" edge="1">
          <mxGeometry relative="1" as="geometry" />
        </mxCell>
        <mxCell id="ZdKOM8unGtF_lBuKlfcn-1" value="" style="edgeStyle=entityRelationEdgeStyle;fontSize=12;html=1;endArrow=ERoneToMany;startArrow=ERoneToMany;rounded=0;exitX=1;exitY=1;exitDx=0;exitDy=0;entryX=0;entryY=0.5;entryDx=0;entryDy=0;" parent="1" source="ZdKOM8unGtF_lBuKlfcn-2" target="IYp7rGb173UTTwIkMacJ-6" edge="1">
          <mxGeometry width="100" height="100" relative="1" as="geometry">
            <mxPoint x="1250" y="295" as="sourcePoint" />
            <mxPoint x="1350" y="195" as="targetPoint" />
          </mxGeometry>
        </mxCell>
        <mxCell id="ZdKOM8unGtF_lBuKlfcn-3" value="" style="edgeStyle=entityRelationEdgeStyle;fontSize=12;html=1;endArrow=ERoneToMany;startArrow=ERoneToMany;rounded=0;entryX=0;entryY=0.5;entryDx=0;entryDy=0;exitX=1.015;exitY=0.933;exitDx=0;exitDy=0;exitPerimeter=0;" parent="1" source="IYp7rGb173UTTwIkMacJ-3" target="ZdKOM8unGtF_lBuKlfcn-2" edge="1">
          <mxGeometry width="100" height="100" relative="1" as="geometry">
            <mxPoint x="1200" y="80" as="sourcePoint" />
            <mxPoint x="1275" y="165" as="targetPoint" />
          </mxGeometry>
        </mxCell>
        <mxCell id="ZdKOM8unGtF_lBuKlfcn-2" value="has" style="rhombus;whiteSpace=wrap;html=1;" parent="1" vertex="1">
          <mxGeometry x="1280" y="130" width="100" height="60" as="geometry" />
        </mxCell>
        <mxCell id="6uXAJhKeQOaQSC9MLbms-5" value="Pickup_Date" style="ellipse;whiteSpace=wrap;html=1;align=center;" parent="1" vertex="1">
          <mxGeometry x="300" y="390" width="100" height="40" as="geometry" />
        </mxCell>
        <mxCell id="ZdKOM8unGtF_lBuKlfcn-19" style="edgeStyle=orthogonalEdgeStyle;rounded=0;orthogonalLoop=1;jettySize=auto;html=1;exitX=1;exitY=0.5;exitDx=0;exitDy=0;entryX=0;entryY=0.5;entryDx=0;entryDy=0;" parent="1" source="ZdKOM8unGtF_lBuKlfcn-12" target="ZdKOM8unGtF_lBuKlfcn-18" edge="1">
          <mxGeometry relative="1" as="geometry" />
        </mxCell>
        <mxCell id="6uXAJhKeQOaQSC9MLbms-64" style="edgeStyle=orthogonalEdgeStyle;rounded=0;orthogonalLoop=1;jettySize=auto;html=1;exitX=1;exitY=0;exitDx=0;exitDy=0;entryX=0.5;entryY=1;entryDx=0;entryDy=0;" parent="1" source="6uXAJhKeQOaQSC9MLbms-56" target="6uXAJhKeQOaQSC9MLbms-58" edge="1">
          <mxGeometry relative="1" as="geometry" />
        </mxCell>
        <mxCell id="6uXAJhKeQOaQSC9MLbms-58" value="date" style="ellipse;whiteSpace=wrap;html=1;" parent="1" vertex="1">
          <mxGeometry x="220" y="400" width="70" height="40" as="geometry" />
        </mxCell>
        <mxCell id="ZdKOM8unGtF_lBuKlfcn-21" style="edgeStyle=orthogonalEdgeStyle;rounded=0;orthogonalLoop=1;jettySize=auto;html=1;exitX=0.5;exitY=0;exitDx=0;exitDy=0;entryX=0.5;entryY=1;entryDx=0;entryDy=0;" parent="1" source="ZdKOM8unGtF_lBuKlfcn-12" target="ZdKOM8unGtF_lBuKlfcn-20" edge="1">
          <mxGeometry relative="1" as="geometry" />
        </mxCell>
        <mxCell id="ZdKOM8unGtF_lBuKlfcn-23" style="edgeStyle=orthogonalEdgeStyle;rounded=0;orthogonalLoop=1;jettySize=auto;html=1;exitX=1;exitY=1;exitDx=0;exitDy=0;entryX=0;entryY=0.5;entryDx=0;entryDy=0;" parent="1" source="ZdKOM8unGtF_lBuKlfcn-12" target="ZdKOM8unGtF_lBuKlfcn-22" edge="1">
          <mxGeometry relative="1" as="geometry" />
        </mxCell>
        <mxCell id="ZdKOM8unGtF_lBuKlfcn-60" style="edgeStyle=orthogonalEdgeStyle;rounded=0;orthogonalLoop=1;jettySize=auto;html=1;exitX=0;exitY=1;exitDx=0;exitDy=0;" parent="1" source="ZdKOM8unGtF_lBuKlfcn-12" target="6uXAJhKeQOaQSC9MLbms-26" edge="1">
          <mxGeometry relative="1" as="geometry">
            <Array as="points">
              <mxPoint x="1115" y="610" />
              <mxPoint x="1020" y="610" />
            </Array>
          </mxGeometry>
        </mxCell>
        <mxCell id="ZdKOM8unGtF_lBuKlfcn-61" style="edgeStyle=orthogonalEdgeStyle;rounded=0;orthogonalLoop=1;jettySize=auto;html=1;exitX=0;exitY=0.5;exitDx=0;exitDy=0;entryX=1;entryY=0.5;entryDx=0;entryDy=0;" parent="1" source="ZdKOM8unGtF_lBuKlfcn-12" target="6uXAJhKeQOaQSC9MLbms-28" edge="1">
          <mxGeometry relative="1" as="geometry" />
        </mxCell>
        <mxCell id="ZdKOM8unGtF_lBuKlfcn-135" style="edgeStyle=orthogonalEdgeStyle;rounded=0;orthogonalLoop=1;jettySize=auto;html=1;exitX=0.25;exitY=1;exitDx=0;exitDy=0;entryX=0.5;entryY=0;entryDx=0;entryDy=0;" parent="1" source="ZdKOM8unGtF_lBuKlfcn-12" target="ZdKOM8unGtF_lBuKlfcn-47" edge="1">
          <mxGeometry relative="1" as="geometry" />
        </mxCell>
        <mxCell id="ZdKOM8unGtF_lBuKlfcn-12" value="Staff" style="rounded=0;whiteSpace=wrap;html=1;" parent="1" vertex="1">
          <mxGeometry x="1115" y="540" width="110" height="50" as="geometry" />
        </mxCell>
        <mxCell id="6uXAJhKeQOaQSC9MLbms-21" style="edgeStyle=orthogonalEdgeStyle;rounded=0;orthogonalLoop=1;jettySize=auto;html=1;exitX=0.5;exitY=1;exitDx=0;exitDy=0;entryX=0.5;entryY=0;entryDx=0;entryDy=0;" parent="1" source="6uXAJhKeQOaQSC9MLbms-7" target="6uXAJhKeQOaQSC9MLbms-14" edge="1">
          <mxGeometry relative="1" as="geometry" />
        </mxCell>
        <mxCell id="6uXAJhKeQOaQSC9MLbms-7" value="Renew" style="whiteSpace=wrap;html=1;align=center;" parent="1" vertex="1">
          <mxGeometry x="490" y="430" width="100" height="40" as="geometry" />
        </mxCell>
        <mxCell id="ZdKOM8unGtF_lBuKlfcn-14" style="edgeStyle=orthogonalEdgeStyle;rounded=0;orthogonalLoop=1;jettySize=auto;html=1;exitX=1;exitY=0;exitDx=0;exitDy=0;entryX=0.41;entryY=0.95;entryDx=0;entryDy=0;entryPerimeter=0;" parent="1" source="ZdKOM8unGtF_lBuKlfcn-12" target="ZdKOM8unGtF_lBuKlfcn-13" edge="1">
          <mxGeometry relative="1" as="geometry" />
        </mxCell>
        <mxCell id="6uXAJhKeQOaQSC9MLbms-8" value="Borrow" style="whiteSpace=wrap;html=1;align=center;" parent="1" vertex="1">
          <mxGeometry x="610" y="430" width="100" height="40" as="geometry" />
        </mxCell>
        <mxCell id="6uXAJhKeQOaQSC9MLbms-113" style="edgeStyle=orthogonalEdgeStyle;rounded=0;orthogonalLoop=1;jettySize=auto;html=1;exitX=1;exitY=0;exitDx=0;exitDy=0;entryX=0;entryY=1;entryDx=0;entryDy=0;" parent="1" source="ZdKOM8unGtF_lBuKlfcn-18" target="6uXAJhKeQOaQSC9MLbms-110" edge="1">
          <mxGeometry relative="1" as="geometry" />
        </mxCell>
        <mxCell id="6uXAJhKeQOaQSC9MLbms-114" style="edgeStyle=orthogonalEdgeStyle;rounded=0;orthogonalLoop=1;jettySize=auto;html=1;exitX=1;exitY=1;exitDx=0;exitDy=0;entryX=0;entryY=0;entryDx=0;entryDy=0;" parent="1" source="ZdKOM8unGtF_lBuKlfcn-18" target="6uXAJhKeQOaQSC9MLbms-112" edge="1">
          <mxGeometry relative="1" as="geometry" />
        </mxCell>
        <mxCell id="6uXAJhKeQOaQSC9MLbms-115" style="edgeStyle=orthogonalEdgeStyle;rounded=0;orthogonalLoop=1;jettySize=auto;html=1;exitX=0.5;exitY=1;exitDx=0;exitDy=0;entryX=0;entryY=0;entryDx=0;entryDy=0;" parent="1" source="ZdKOM8unGtF_lBuKlfcn-18" target="6uXAJhKeQOaQSC9MLbms-111" edge="1">
          <mxGeometry relative="1" as="geometry" />
        </mxCell>
        <mxCell id="ZdKOM8unGtF_lBuKlfcn-18" value="Sta_Name" style="ellipse;whiteSpace=wrap;html=1;align=center;" parent="1" vertex="1">
          <mxGeometry x="1305" y="530" width="100" height="40" as="geometry" />
        </mxCell>
        <mxCell id="ZdKOM8unGtF_lBuKlfcn-64" style="edgeStyle=orthogonalEdgeStyle;rounded=0;orthogonalLoop=1;jettySize=auto;html=1;exitX=1;exitY=0.5;exitDx=0;exitDy=0;entryX=0.5;entryY=0;entryDx=0;entryDy=0;" parent="1" source="6uXAJhKeQOaQSC9MLbms-9" target="6uXAJhKeQOaQSC9MLbms-15" edge="1">
          <mxGeometry relative="1" as="geometry" />
        </mxCell>
        <mxCell id="6uXAJhKeQOaQSC9MLbms-9" value="Return" style="whiteSpace=wrap;html=1;align=center;" parent="1" vertex="1">
          <mxGeometry x="680" y="365" width="100" height="30" as="geometry" />
        </mxCell>
        <mxCell id="6uXAJhKeQOaQSC9MLbms-6" value="Reserve" style="whiteSpace=wrap;html=1;align=center;" parent="1" vertex="1">
          <mxGeometry x="360" y="455" width="100" height="40" as="geometry" />
        </mxCell>
        <mxCell id="ZdKOM8unGtF_lBuKlfcn-13" value="&lt;u&gt;Staff_ID&lt;/u&gt;" style="ellipse;whiteSpace=wrap;html=1;align=center;" parent="1" vertex="1">
          <mxGeometry x="1270" y="460" width="100" height="40" as="geometry" />
        </mxCell>
        <mxCell id="ZdKOM8unGtF_lBuKlfcn-22" value="phone no&amp;nbsp;" style="ellipse;shape=doubleEllipse;margin=3;whiteSpace=wrap;html=1;align=center;" parent="1" vertex="1">
          <mxGeometry x="1280" y="590" width="100" height="40" as="geometry" />
        </mxCell>
        <mxCell id="ZdKOM8unGtF_lBuKlfcn-20" value="Email" style="ellipse;whiteSpace=wrap;html=1;" parent="1" vertex="1">
          <mxGeometry x="1180" y="450" width="70" height="40" as="geometry" />
        </mxCell>
        <mxCell id="6uXAJhKeQOaQSC9MLbms-12" value="&#xa;Renewal_Count&#xa;&#xa;" style="ellipse;whiteSpace=wrap;html=1;align=center;" parent="1" vertex="1">
          <mxGeometry x="727.5" y="480" width="122.5" height="50" as="geometry" />
        </mxCell>
        <mxCell id="6uXAJhKeQOaQSC9MLbms-13" value="Fine_Amount" style="ellipse;whiteSpace=wrap;html=1;align=center;" parent="1" vertex="1">
          <mxGeometry x="627.5" y="510" width="100" height="40" as="geometry" />
        </mxCell>
        <mxCell id="6uXAJhKeQOaQSC9MLbms-14" value="Loan_Period" style="ellipse;whiteSpace=wrap;html=1;align=center;" parent="1" vertex="1">
          <mxGeometry x="490" y="510" width="100" height="60" as="geometry" />
        </mxCell>
        <mxCell id="6uXAJhKeQOaQSC9MLbms-15" value="Previous_Due_Date" style="ellipse;whiteSpace=wrap;html=1;align=center;" parent="1" vertex="1">
          <mxGeometry x="787.5" y="410" width="110" height="40" as="geometry" />
        </mxCell>
        <mxCell id="6uXAJhKeQOaQSC9MLbms-16" style="edgeStyle=orthogonalEdgeStyle;rounded=0;orthogonalLoop=1;jettySize=auto;html=1;exitX=0;exitY=0.75;exitDx=0;exitDy=0;entryX=0.35;entryY=0.947;entryDx=0;entryDy=0;entryPerimeter=0;" parent="1" source="6uXAJhKeQOaQSC9MLbms-6" target="6uXAJhKeQOaQSC9MLbms-5" edge="1">
          <mxGeometry relative="1" as="geometry" />
        </mxCell>
        <mxCell id="6uXAJhKeQOaQSC9MLbms-20" style="edgeStyle=orthogonalEdgeStyle;rounded=0;orthogonalLoop=1;jettySize=auto;html=1;exitX=0.5;exitY=1;exitDx=0;exitDy=0;entryX=0.353;entryY=0.014;entryDx=0;entryDy=0;entryPerimeter=0;" parent="1" source="6uXAJhKeQOaQSC9MLbms-8" target="6uXAJhKeQOaQSC9MLbms-13" edge="1">
          <mxGeometry relative="1" as="geometry" />
        </mxCell>
        <mxCell id="6uXAJhKeQOaQSC9MLbms-22" style="edgeStyle=orthogonalEdgeStyle;rounded=0;orthogonalLoop=1;jettySize=auto;html=1;exitX=0.5;exitY=1;exitDx=0;exitDy=0;entryX=0.291;entryY=0.103;entryDx=0;entryDy=0;entryPerimeter=0;" parent="1" source="6uXAJhKeQOaQSC9MLbms-9" target="6uXAJhKeQOaQSC9MLbms-12" edge="1">
          <mxGeometry relative="1" as="geometry" />
        </mxCell>
        <mxCell id="6uXAJhKeQOaQSC9MLbms-26" value="hire_date" style="ellipse;whiteSpace=wrap;html=1;" parent="1" vertex="1">
          <mxGeometry x="980" y="630" width="80" height="50" as="geometry" />
        </mxCell>
        <mxCell id="6uXAJhKeQOaQSC9MLbms-105" style="edgeStyle=orthogonalEdgeStyle;rounded=0;orthogonalLoop=1;jettySize=auto;html=1;exitX=0.5;exitY=0;exitDx=0;exitDy=0;entryX=0.5;entryY=1;entryDx=0;entryDy=0;" parent="1" source="6uXAJhKeQOaQSC9MLbms-28" target="6uXAJhKeQOaQSC9MLbms-103" edge="1">
          <mxGeometry relative="1" as="geometry" />
        </mxCell>
        <mxCell id="6uXAJhKeQOaQSC9MLbms-106" style="edgeStyle=orthogonalEdgeStyle;rounded=0;orthogonalLoop=1;jettySize=auto;html=1;exitX=1;exitY=0;exitDx=0;exitDy=0;entryX=0.5;entryY=1;entryDx=0;entryDy=0;" parent="1" source="6uXAJhKeQOaQSC9MLbms-28" target="6uXAJhKeQOaQSC9MLbms-102" edge="1">
          <mxGeometry relative="1" as="geometry" />
        </mxCell>
        <mxCell id="6uXAJhKeQOaQSC9MLbms-28" value="address" style="ellipse;whiteSpace=wrap;html=1;" parent="1" vertex="1">
          <mxGeometry x="955" y="540" width="80" height="50" as="geometry" />
        </mxCell>
        <mxCell id="ZdKOM8unGtF_lBuKlfcn-55" style="edgeStyle=orthogonalEdgeStyle;rounded=0;orthogonalLoop=1;jettySize=auto;html=1;exitX=1;exitY=0.5;exitDx=0;exitDy=0;entryX=0;entryY=0;entryDx=0;entryDy=0;" parent="1" source="ZdKOM8unGtF_lBuKlfcn-47" target="ZdKOM8unGtF_lBuKlfcn-54" edge="1">
          <mxGeometry relative="1" as="geometry" />
        </mxCell>
        <mxCell id="ZdKOM8unGtF_lBuKlfcn-56" style="edgeStyle=orthogonalEdgeStyle;rounded=0;orthogonalLoop=1;jettySize=auto;html=1;exitX=1;exitY=1;exitDx=0;exitDy=0;entryX=0.5;entryY=0;entryDx=0;entryDy=0;" parent="1" source="ZdKOM8unGtF_lBuKlfcn-47" target="ZdKOM8unGtF_lBuKlfcn-52" edge="1">
          <mxGeometry relative="1" as="geometry" />
        </mxCell>
        <mxCell id="ZdKOM8unGtF_lBuKlfcn-58" style="edgeStyle=orthogonalEdgeStyle;rounded=0;orthogonalLoop=1;jettySize=auto;html=1;exitX=0;exitY=1;exitDx=0;exitDy=0;entryX=1;entryY=0;entryDx=0;entryDy=0;" parent="1" source="ZdKOM8unGtF_lBuKlfcn-47" target="ZdKOM8unGtF_lBuKlfcn-53" edge="1">
          <mxGeometry relative="1" as="geometry" />
        </mxCell>
        <mxCell id="ZdKOM8unGtF_lBuKlfcn-47" value="Role" style="ellipse;whiteSpace=wrap;html=1;" parent="1" vertex="1">
          <mxGeometry x="1090" y="620" width="80" height="50" as="geometry" />
        </mxCell>
        <mxCell id="ZdKOM8unGtF_lBuKlfcn-52" value="Admin" style="ellipse;whiteSpace=wrap;html=1;" parent="1" vertex="1">
          <mxGeometry x="1145" y="730" width="70" height="40" as="geometry" />
        </mxCell>
        <mxCell id="ZdKOM8unGtF_lBuKlfcn-53" value="Technician" style="ellipse;whiteSpace=wrap;html=1;" parent="1" vertex="1">
          <mxGeometry x="1005" y="700" width="70" height="40" as="geometry" />
        </mxCell>
        <mxCell id="ZdKOM8unGtF_lBuKlfcn-54" value="Librarian" style="ellipse;whiteSpace=wrap;html=1;" parent="1" vertex="1">
          <mxGeometry x="1180" y="690" width="70" height="40" as="geometry" />
        </mxCell>
        <mxCell id="6uXAJhKeQOaQSC9MLbms-31" value="section_name" style="ellipse;whiteSpace=wrap;html=1;rotation=15;" parent="1" vertex="1">
          <mxGeometry x="1412.5" width="75" height="40" as="geometry" />
        </mxCell>
        <mxCell id="ZdKOM8unGtF_lBuKlfcn-59" value="&lt;div&gt;Has role in&lt;/div&gt;" style="rhombus;whiteSpace=wrap;html=1;" parent="1" vertex="1">
          <mxGeometry x="895" y="260" width="130" height="70" as="geometry" />
        </mxCell>
        <mxCell id="ZdKOM8unGtF_lBuKlfcn-62" value="" style="edgeStyle=entityRelationEdgeStyle;fontSize=12;html=1;endArrow=ERoneToMany;startArrow=ERoneToMany;rounded=0;exitX=1;exitY=1;exitDx=0;exitDy=0;entryX=0;entryY=0;entryDx=0;entryDy=0;" parent="1" source="ZdKOM8unGtF_lBuKlfcn-59" target="ZdKOM8unGtF_lBuKlfcn-12" edge="1">
          <mxGeometry width="100" height="100" relative="1" as="geometry">
            <mxPoint x="910" y="420" as="sourcePoint" />
            <mxPoint x="1010" y="320" as="targetPoint" />
          </mxGeometry>
        </mxCell>
        <mxCell id="6uXAJhKeQOaQSC9MLbms-33" value="Floor_no" style="ellipse;whiteSpace=wrap;html=1;" parent="1" vertex="1">
          <mxGeometry x="1310" y="-80" width="70" height="40" as="geometry" />
        </mxCell>
        <mxCell id="6uXAJhKeQOaQSC9MLbms-34" value="shelf_no" style="ellipse;whiteSpace=wrap;html=1;rotation=25;" parent="1" vertex="1">
          <mxGeometry x="1400" y="-60" width="70" height="40" as="geometry" />
        </mxCell>
        <mxCell id="ZdKOM8unGtF_lBuKlfcn-63" value="" style="edgeStyle=entityRelationEdgeStyle;fontSize=12;html=1;endArrow=ERoneToMany;startArrow=ERoneToMany;rounded=0;entryX=0;entryY=0;entryDx=0;entryDy=0;exitX=1.006;exitY=0.889;exitDx=0;exitDy=0;exitPerimeter=0;" parent="1" source="IYp7rGb173UTTwIkMacJ-5" target="ZdKOM8unGtF_lBuKlfcn-59" edge="1">
          <mxGeometry width="100" height="100" relative="1" as="geometry">
            <mxPoint x="750" y="210" as="sourcePoint" />
            <mxPoint x="1095" y="540" as="targetPoint" />
          </mxGeometry>
        </mxCell>
        <mxCell id="ZdKOM8unGtF_lBuKlfcn-74" style="edgeStyle=orthogonalEdgeStyle;rounded=0;orthogonalLoop=1;jettySize=auto;html=1;exitX=0;exitY=0.5;exitDx=0;exitDy=0;entryX=1;entryY=0.5;entryDx=0;entryDy=0;" parent="1" source="ZdKOM8unGtF_lBuKlfcn-65" target="ZdKOM8unGtF_lBuKlfcn-73" edge="1">
          <mxGeometry relative="1" as="geometry" />
        </mxCell>
        <mxCell id="ZdKOM8unGtF_lBuKlfcn-65" value="Book Request" style="rounded=0;whiteSpace=wrap;html=1;" parent="1" vertex="1">
          <mxGeometry x="910" y="-140" width="110" height="50" as="geometry" />
        </mxCell>
        <mxCell id="ZdKOM8unGtF_lBuKlfcn-73" value="&lt;u&gt;Request_ID&lt;/u&gt;" style="ellipse;whiteSpace=wrap;html=1;" parent="1" vertex="1">
          <mxGeometry x="795" y="-170" width="85" height="40" as="geometry" />
        </mxCell>
        <mxCell id="ZdKOM8unGtF_lBuKlfcn-75" value="request_date" style="ellipse;whiteSpace=wrap;html=1;" parent="1" vertex="1">
          <mxGeometry x="1005" y="-190" width="110" height="50" as="geometry" />
        </mxCell>
        <mxCell id="ZdKOM8unGtF_lBuKlfcn-77" style="edgeStyle=orthogonalEdgeStyle;rounded=0;orthogonalLoop=1;jettySize=auto;html=1;exitX=1;exitY=0.5;exitDx=0;exitDy=0;entryX=0.5;entryY=1;entryDx=0;entryDy=0;" parent="1" source="ZdKOM8unGtF_lBuKlfcn-65" target="ZdKOM8unGtF_lBuKlfcn-75" edge="1">
          <mxGeometry relative="1" as="geometry" />
        </mxCell>
        <mxCell id="6uXAJhKeQOaQSC9MLbms-52" value="book_category" style="ellipse;whiteSpace=wrap;html=1;" parent="1" vertex="1">
          <mxGeometry x="890" y="50" width="90" height="40" as="geometry" />
        </mxCell>
        <mxCell id="ZdKOM8unGtF_lBuKlfcn-88" value="" style="edgeStyle=entityRelationEdgeStyle;fontSize=12;html=1;endArrow=ERoneToMany;startArrow=ERoneToMany;rounded=0;exitX=1;exitY=0.25;exitDx=0;exitDy=0;entryX=0;entryY=0.75;entryDx=0;entryDy=0;" parent="1" source="ZdKOM8unGtF_lBuKlfcn-87" target="ZdKOM8unGtF_lBuKlfcn-65" edge="1">
          <mxGeometry width="100" height="100" relative="1" as="geometry">
            <mxPoint x="790" y="100" as="sourcePoint" />
            <mxPoint x="940" y="-150" as="targetPoint" />
          </mxGeometry>
        </mxCell>
        <mxCell id="6uXAJhKeQOaQSC9MLbms-62" style="edgeStyle=orthogonalEdgeStyle;rounded=0;orthogonalLoop=1;jettySize=auto;html=1;exitX=0;exitY=0.25;exitDx=0;exitDy=0;entryX=0.5;entryY=1;entryDx=0;entryDy=0;" parent="1" source="6uXAJhKeQOaQSC9MLbms-56" target="6uXAJhKeQOaQSC9MLbms-61" edge="1">
          <mxGeometry relative="1" as="geometry" />
        </mxCell>
        <mxCell id="6uXAJhKeQOaQSC9MLbms-65" style="edgeStyle=orthogonalEdgeStyle;rounded=0;orthogonalLoop=1;jettySize=auto;html=1;exitX=0.25;exitY=1;exitDx=0;exitDy=0;entryX=0.5;entryY=0;entryDx=0;entryDy=0;" parent="1" source="6uXAJhKeQOaQSC9MLbms-56" target="6uXAJhKeQOaQSC9MLbms-59" edge="1">
          <mxGeometry relative="1" as="geometry" />
        </mxCell>
        <mxCell id="6uXAJhKeQOaQSC9MLbms-66" style="edgeStyle=orthogonalEdgeStyle;rounded=0;orthogonalLoop=1;jettySize=auto;html=1;exitX=1;exitY=0.5;exitDx=0;exitDy=0;" parent="1" source="6uXAJhKeQOaQSC9MLbms-56" target="6uXAJhKeQOaQSC9MLbms-60" edge="1">
          <mxGeometry relative="1" as="geometry" />
        </mxCell>
        <mxCell id="6uXAJhKeQOaQSC9MLbms-77" style="edgeStyle=orthogonalEdgeStyle;rounded=0;orthogonalLoop=1;jettySize=auto;html=1;exitX=0.5;exitY=1;exitDx=0;exitDy=0;entryX=0.5;entryY=0;entryDx=0;entryDy=0;" parent="1" source="6uXAJhKeQOaQSC9MLbms-56" target="6uXAJhKeQOaQSC9MLbms-67" edge="1">
          <mxGeometry relative="1" as="geometry" />
        </mxCell>
        <mxCell id="6uXAJhKeQOaQSC9MLbms-56" value="library_events" style="rounded=0;whiteSpace=wrap;html=1;" parent="1" vertex="1">
          <mxGeometry x="85" y="460" width="120" height="45" as="geometry" />
        </mxCell>
        <mxCell id="6uXAJhKeQOaQSC9MLbms-59" value="location" style="ellipse;whiteSpace=wrap;html=1;" parent="1" vertex="1">
          <mxGeometry x="50" y="530" width="70" height="40" as="geometry" />
        </mxCell>
        <mxCell id="6uXAJhKeQOaQSC9MLbms-60" value="description" style="ellipse;whiteSpace=wrap;html=1;" parent="1" vertex="1">
          <mxGeometry x="240" y="462.5" width="70" height="40" as="geometry" />
        </mxCell>
        <mxCell id="6uXAJhKeQOaQSC9MLbms-61" value="event_id" style="ellipse;whiteSpace=wrap;html=1;align=center;fontStyle=4;" parent="1" vertex="1">
          <mxGeometry y="410" width="100" height="40" as="geometry" />
        </mxCell>
        <mxCell id="ZdKOM8unGtF_lBuKlfcn-89" value="" style="edgeStyle=entityRelationEdgeStyle;fontSize=12;html=1;endArrow=ERoneToMany;startArrow=ERoneToMany;rounded=0;exitX=1;exitY=0.25;exitDx=0;exitDy=0;entryX=0;entryY=0.75;entryDx=0;entryDy=0;" parent="1" source="IYp7rGb173UTTwIkMacJ-5" target="ZdKOM8unGtF_lBuKlfcn-87" edge="1">
          <mxGeometry width="100" height="100" relative="1" as="geometry">
            <mxPoint x="740" y="183" as="sourcePoint" />
            <mxPoint x="910" y="-102" as="targetPoint" />
          </mxGeometry>
        </mxCell>
        <mxCell id="ZdKOM8unGtF_lBuKlfcn-87" value="Must" style="rhombus;whiteSpace=wrap;html=1;" parent="1" vertex="1">
          <mxGeometry x="820" y="-25" width="100" height="60" as="geometry" />
        </mxCell>
        <mxCell id="ZdKOM8unGtF_lBuKlfcn-4" value="phone no&amp;nbsp;" style="ellipse;shape=doubleEllipse;margin=3;whiteSpace=wrap;html=1;align=center;" parent="1" vertex="1">
          <mxGeometry x="10" y="90" width="100" height="40" as="geometry" />
        </mxCell>
        <mxCell id="6uXAJhKeQOaQSC9MLbms-67" value="event_name" style="ellipse;whiteSpace=wrap;html=1;" parent="1" vertex="1">
          <mxGeometry x="120" y="530" width="70" height="40" as="geometry" />
        </mxCell>
        <mxCell id="6uXAJhKeQOaQSC9MLbms-68" value="&lt;div&gt;attend&lt;/div&gt;" style="rhombus;whiteSpace=wrap;html=1;rotation=0;" parent="1" vertex="1">
          <mxGeometry x="125" y="320" width="115" height="60" as="geometry" />
        </mxCell>
        <mxCell id="6uXAJhKeQOaQSC9MLbms-72" value="" style="edgeStyle=entityRelationEdgeStyle;fontSize=12;html=1;endArrow=ERzeroToMany;endFill=1;startArrow=ERzeroToMany;rounded=0;entryX=0.5;entryY=1;entryDx=0;entryDy=0;" parent="1" target="6uXAJhKeQOaQSC9MLbms-68" edge="1">
          <mxGeometry width="100" height="100" relative="1" as="geometry">
            <mxPoint x="150" y="460" as="sourcePoint" />
            <mxPoint x="250" y="360" as="targetPoint" />
          </mxGeometry>
        </mxCell>
        <mxCell id="6uXAJhKeQOaQSC9MLbms-73" value="" style="edgeStyle=entityRelationEdgeStyle;fontSize=12;html=1;endArrow=ERzeroToMany;endFill=1;startArrow=ERzeroToMany;rounded=0;exitX=1;exitY=1;exitDx=0;exitDy=0;entryX=1;entryY=0.5;entryDx=0;entryDy=0;" parent="1" source="IYp7rGb173UTTwIkMacJ-1" target="6uXAJhKeQOaQSC9MLbms-68" edge="1">
          <mxGeometry width="100" height="100" relative="1" as="geometry">
            <mxPoint x="235" y="370" as="sourcePoint" />
            <mxPoint x="100" y="360" as="targetPoint" />
          </mxGeometry>
        </mxCell>
        <mxCell id="6uXAJhKeQOaQSC9MLbms-76" value="&lt;div&gt;oraganise&lt;/div&gt;" style="rhombus;whiteSpace=wrap;html=1;rotation=0;" parent="1" vertex="1">
          <mxGeometry x="465" y="630" width="115" height="60" as="geometry" />
        </mxCell>
        <mxCell id="ZdKOM8unGtF_lBuKlfcn-102" style="edgeStyle=orthogonalEdgeStyle;rounded=0;orthogonalLoop=1;jettySize=auto;html=1;exitX=0.5;exitY=0;exitDx=0;exitDy=0;entryX=0.5;entryY=1;entryDx=0;entryDy=0;" parent="1" source="ZdKOM8unGtF_lBuKlfcn-100" target="ZdKOM8unGtF_lBuKlfcn-101" edge="1">
          <mxGeometry relative="1" as="geometry" />
        </mxCell>
        <mxCell id="ZdKOM8unGtF_lBuKlfcn-107" style="edgeStyle=orthogonalEdgeStyle;rounded=0;orthogonalLoop=1;jettySize=auto;html=1;exitX=0;exitY=0;exitDx=0;exitDy=0;entryX=1;entryY=0.5;entryDx=0;entryDy=0;" parent="1" source="ZdKOM8unGtF_lBuKlfcn-100" target="ZdKOM8unGtF_lBuKlfcn-105" edge="1">
          <mxGeometry relative="1" as="geometry" />
        </mxCell>
        <mxCell id="ZdKOM8unGtF_lBuKlfcn-109" style="edgeStyle=orthogonalEdgeStyle;rounded=0;orthogonalLoop=1;jettySize=auto;html=1;exitX=1;exitY=0.5;exitDx=0;exitDy=0;entryX=0;entryY=0.5;entryDx=0;entryDy=0;" parent="1" source="ZdKOM8unGtF_lBuKlfcn-100" target="ZdKOM8unGtF_lBuKlfcn-108" edge="1">
          <mxGeometry relative="1" as="geometry" />
        </mxCell>
        <mxCell id="ZdKOM8unGtF_lBuKlfcn-100" value="Publisher" style="rounded=0;whiteSpace=wrap;html=1;" parent="1" vertex="1">
          <mxGeometry x="1160" y="-250" width="110" height="50" as="geometry" />
        </mxCell>
        <mxCell id="ZdKOM8unGtF_lBuKlfcn-101" value="&lt;u&gt;Publisher_ID&lt;/u&gt;" style="ellipse;whiteSpace=wrap;html=1;" parent="1" vertex="1">
          <mxGeometry x="1140" y="-380" width="80" height="50" as="geometry" />
        </mxCell>
        <mxCell id="ZdKOM8unGtF_lBuKlfcn-105" value="Pub_Name" style="ellipse;whiteSpace=wrap;html=1;" parent="1" vertex="1">
          <mxGeometry x="1052.5" y="-310" width="75" height="40" as="geometry" />
        </mxCell>
        <mxCell id="6uXAJhKeQOaQSC9MLbms-81" value="" style="edgeStyle=entityRelationEdgeStyle;fontSize=12;html=1;endArrow=ERoneToMany;startArrow=ERoneToMany;rounded=0;entryX=0;entryY=0.5;entryDx=0;entryDy=0;exitX=1;exitY=1;exitDx=0;exitDy=0;" parent="1" source="6uXAJhKeQOaQSC9MLbms-56" target="6uXAJhKeQOaQSC9MLbms-76" edge="1">
          <mxGeometry width="100" height="100" relative="1" as="geometry">
            <mxPoint x="-20" y="700" as="sourcePoint" />
            <mxPoint x="490" y="620" as="targetPoint" />
            <Array as="points">
              <mxPoint x="200" y="510" />
              <mxPoint x="480" y="620" />
            </Array>
          </mxGeometry>
        </mxCell>
        <mxCell id="6uXAJhKeQOaQSC9MLbms-82" value="" style="edgeStyle=entityRelationEdgeStyle;fontSize=12;html=1;endArrow=ERzeroToMany;endFill=1;startArrow=ERzeroToMany;rounded=0;entryX=0;entryY=0.75;entryDx=0;entryDy=0;" parent="1" target="ZdKOM8unGtF_lBuKlfcn-12" edge="1">
          <mxGeometry width="100" height="100" relative="1" as="geometry">
            <mxPoint x="580" y="660" as="sourcePoint" />
            <mxPoint x="680" y="560" as="targetPoint" />
            <Array as="points">
              <mxPoint x="710" y="570" />
              <mxPoint x="1000" y="580" />
            </Array>
          </mxGeometry>
        </mxCell>
        <mxCell id="IYp7rGb173UTTwIkMacJ-97" value="involves" style="rhombus;whiteSpace=wrap;html=1;" parent="1" vertex="1">
          <mxGeometry x="880" y="120" width="100" height="60" as="geometry" />
        </mxCell>
        <mxCell id="ZdKOM8unGtF_lBuKlfcn-108" value="language" style="ellipse;whiteSpace=wrap;html=1;" parent="1" vertex="1">
          <mxGeometry x="1300" y="-320" width="110" height="50" as="geometry" />
        </mxCell>
        <mxCell id="ZdKOM8unGtF_lBuKlfcn-115" value="" style="edgeStyle=entityRelationEdgeStyle;fontSize=12;html=1;endArrow=ERoneToMany;startArrow=ERmandOne;rounded=0;entryX=0;entryY=0.75;entryDx=0;entryDy=0;" parent="1" target="IYp7rGb173UTTwIkMacJ-3" edge="1">
          <mxGeometry width="100" height="100" relative="1" as="geometry">
            <mxPoint x="980" y="153" as="sourcePoint" />
            <mxPoint x="830" y="197.5" as="targetPoint" />
          </mxGeometry>
        </mxCell>
        <mxCell id="ZdKOM8unGtF_lBuKlfcn-116" style="edgeStyle=orthogonalEdgeStyle;rounded=0;orthogonalLoop=1;jettySize=auto;html=1;exitX=0.5;exitY=1;exitDx=0;exitDy=0;" parent="1" edge="1">
          <mxGeometry relative="1" as="geometry">
            <mxPoint x="1400" y="50" as="sourcePoint" />
            <mxPoint x="1400" y="50" as="targetPoint" />
          </mxGeometry>
        </mxCell>
        <mxCell id="ZdKOM8unGtF_lBuKlfcn-122" value="" style="edgeStyle=entityRelationEdgeStyle;fontSize=12;html=1;endArrow=ERoneToMany;startArrow=ERoneToMany;rounded=0;exitX=1;exitY=0.25;exitDx=0;exitDy=0;" parent="1" source="ZdKOM8unGtF_lBuKlfcn-121" edge="1">
          <mxGeometry width="100" height="100" relative="1" as="geometry">
            <mxPoint x="1270" y="-110" as="sourcePoint" />
            <mxPoint x="1160" y="-210" as="targetPoint" />
          </mxGeometry>
        </mxCell>
        <mxCell id="ZdKOM8unGtF_lBuKlfcn-123" value="" style="edgeStyle=entityRelationEdgeStyle;fontSize=12;html=1;endArrow=ERoneToMany;startArrow=ERoneToMany;rounded=0;exitX=1;exitY=0.25;exitDx=0;exitDy=0;" parent="1" source="IYp7rGb173UTTwIkMacJ-3" target="ZdKOM8unGtF_lBuKlfcn-121" edge="1">
          <mxGeometry width="100" height="100" relative="1" as="geometry">
            <mxPoint x="1200" y="36" as="sourcePoint" />
            <mxPoint x="1160" y="-210" as="targetPoint" />
          </mxGeometry>
        </mxCell>
        <mxCell id="ZdKOM8unGtF_lBuKlfcn-121" value="publishes" style="rhombus;whiteSpace=wrap;html=1;" parent="1" vertex="1">
          <mxGeometry x="1150" y="-140" width="100" height="60" as="geometry" />
        </mxCell>
        <mxCell id="6uXAJhKeQOaQSC9MLbms-88" value="fine_total" style="ellipse;whiteSpace=wrap;html=1;align=center;dashed=1;" parent="1" vertex="1">
          <mxGeometry x="1150" y="390" width="100" height="40" as="geometry" />
        </mxCell>
        <mxCell id="6uXAJhKeQOaQSC9MLbms-89" value="OverDue_Days" style="ellipse;whiteSpace=wrap;html=1;align=center;dashed=1;" parent="1" vertex="1">
          <mxGeometry x="1070" y="220" width="100" height="50" as="geometry" />
        </mxCell>
        <mxCell id="6uXAJhKeQOaQSC9MLbms-97" style="edgeStyle=orthogonalEdgeStyle;rounded=0;orthogonalLoop=1;jettySize=auto;html=1;exitX=0.5;exitY=1;exitDx=0;exitDy=0;entryX=0.5;entryY=0;entryDx=0;entryDy=0;" parent="1" source="6uXAJhKeQOaQSC9MLbms-91" target="6uXAJhKeQOaQSC9MLbms-94" edge="1">
          <mxGeometry relative="1" as="geometry" />
        </mxCell>
        <mxCell id="6uXAJhKeQOaQSC9MLbms-98" style="edgeStyle=orthogonalEdgeStyle;rounded=0;orthogonalLoop=1;jettySize=auto;html=1;exitX=1;exitY=0.5;exitDx=0;exitDy=0;entryX=0.5;entryY=0;entryDx=0;entryDy=0;" parent="1" source="6uXAJhKeQOaQSC9MLbms-91" target="6uXAJhKeQOaQSC9MLbms-95" edge="1">
          <mxGeometry relative="1" as="geometry" />
        </mxCell>
        <mxCell id="6uXAJhKeQOaQSC9MLbms-91" value="Author_name" style="ellipse;whiteSpace=wrap;html=1;" parent="1" vertex="1">
          <mxGeometry x="1400" y="260" width="100" height="40" as="geometry" />
        </mxCell>
        <mxCell id="6uXAJhKeQOaQSC9MLbms-94" value="firstname" style="ellipse;whiteSpace=wrap;html=1;" parent="1" vertex="1">
          <mxGeometry x="1400" y="345" width="70" height="40" as="geometry" />
        </mxCell>
        <mxCell id="6uXAJhKeQOaQSC9MLbms-95" value="lastname" style="ellipse;whiteSpace=wrap;html=1;" parent="1" vertex="1">
          <mxGeometry x="1500" y="345" width="70" height="40" as="geometry" />
        </mxCell>
        <mxCell id="6uXAJhKeQOaQSC9MLbms-96" style="edgeStyle=orthogonalEdgeStyle;rounded=0;orthogonalLoop=1;jettySize=auto;html=1;exitX=0.5;exitY=1;exitDx=0;exitDy=0;" parent="1" source="6uXAJhKeQOaQSC9MLbms-94" target="6uXAJhKeQOaQSC9MLbms-94" edge="1">
          <mxGeometry relative="1" as="geometry" />
        </mxCell>
        <mxCell id="ZdKOM8unGtF_lBuKlfcn-128" style="edgeStyle=orthogonalEdgeStyle;rounded=0;orthogonalLoop=1;jettySize=auto;html=1;exitX=0.75;exitY=1;exitDx=0;exitDy=0;entryX=0.424;entryY=0.055;entryDx=0;entryDy=0;entryPerimeter=0;" parent="1" source="IYp7rGb173UTTwIkMacJ-3" edge="1">
          <mxGeometry relative="1" as="geometry">
            <mxPoint x="1192.4" y="157.19999999999982" as="targetPoint" />
          </mxGeometry>
        </mxCell>
        <mxCell id="ZdKOM8unGtF_lBuKlfcn-129" value="Publish_date" style="ellipse;whiteSpace=wrap;html=1;" parent="1" vertex="1">
          <mxGeometry x="1150" y="155" width="90" height="40" as="geometry" />
        </mxCell>
        <mxCell id="6uXAJhKeQOaQSC9MLbms-99" value="street" style="ellipse;whiteSpace=wrap;html=1;" parent="1" vertex="1">
          <mxGeometry x="880" y="505" width="70" height="40" as="geometry" />
        </mxCell>
        <mxCell id="6uXAJhKeQOaQSC9MLbms-102" value="city" style="ellipse;whiteSpace=wrap;html=1;" parent="1" vertex="1">
          <mxGeometry x="1000" y="490" width="70" height="40" as="geometry" />
        </mxCell>
        <mxCell id="6uXAJhKeQOaQSC9MLbms-103" value="state" style="ellipse;whiteSpace=wrap;html=1;" parent="1" vertex="1">
          <mxGeometry x="930" y="460" width="70" height="40" as="geometry" />
        </mxCell>
        <mxCell id="6uXAJhKeQOaQSC9MLbms-104" style="edgeStyle=orthogonalEdgeStyle;rounded=0;orthogonalLoop=1;jettySize=auto;html=1;exitX=0;exitY=0.5;exitDx=0;exitDy=0;entryX=0.719;entryY=0.902;entryDx=0;entryDy=0;entryPerimeter=0;" parent="1" source="6uXAJhKeQOaQSC9MLbms-28" target="6uXAJhKeQOaQSC9MLbms-99" edge="1">
          <mxGeometry relative="1" as="geometry" />
        </mxCell>
        <mxCell id="6uXAJhKeQOaQSC9MLbms-110" value="firstname" style="ellipse;whiteSpace=wrap;html=1;" parent="1" vertex="1">
          <mxGeometry x="1430" y="480" width="70" height="40" as="geometry" />
        </mxCell>
        <mxCell id="6uXAJhKeQOaQSC9MLbms-111" value="lastname" style="ellipse;whiteSpace=wrap;html=1;" parent="1" vertex="1">
          <mxGeometry x="1430" y="590" width="70" height="40" as="geometry" />
        </mxCell>
        <mxCell id="6uXAJhKeQOaQSC9MLbms-112" value="mid_name" style="ellipse;whiteSpace=wrap;html=1;" parent="1" vertex="1">
          <mxGeometry x="1450" y="540" width="70" height="40" as="geometry" />
        </mxCell>
        <mxCell id="6uXAJhKeQOaQSC9MLbms-119" value="description" style="ellipse;whiteSpace=wrap;html=1;" parent="1" vertex="1">
          <mxGeometry x="935" y="90" width="75" height="40" as="geometry" />
        </mxCell>
        <mxCell id="6uXAJhKeQOaQSC9MLbms-122" value="Price" style="ellipse;whiteSpace=wrap;html=1;" parent="1" vertex="1">
          <mxGeometry x="1100" y="-70" width="70" height="40" as="geometry" />
        </mxCell>
        <mxCell id="PRDET2eJmKvod60C363v-7" style="edgeStyle=orthogonalEdgeStyle;rounded=0;orthogonalLoop=1;jettySize=auto;html=1;exitX=0.5;exitY=0;exitDx=0;exitDy=0;entryX=0;entryY=1;entryDx=0;entryDy=0;" parent="1" source="PRDET2eJmKvod60C363v-1" target="6uXAJhKeQOaQSC9MLbms-34" edge="1">
          <mxGeometry relative="1" as="geometry" />
        </mxCell>
        <mxCell id="PRDET2eJmKvod60C363v-10" style="edgeStyle=orthogonalEdgeStyle;rounded=0;orthogonalLoop=1;jettySize=auto;html=1;exitX=0.5;exitY=1;exitDx=0;exitDy=0;entryX=0.5;entryY=1;entryDx=0;entryDy=0;" parent="1" source="PRDET2eJmKvod60C363v-1" target="6uXAJhKeQOaQSC9MLbms-31" edge="1">
          <mxGeometry relative="1" as="geometry" />
        </mxCell>
        <mxCell id="PRDET2eJmKvod60C363v-1" value="book location" style="ellipse;whiteSpace=wrap;html=1;rotation=5;" parent="1" vertex="1">
          <mxGeometry x="1315" y="10" width="85" height="40" as="geometry" />
        </mxCell>
        <mxCell id="PRDET2eJmKvod60C363v-4" style="edgeStyle=orthogonalEdgeStyle;rounded=0;orthogonalLoop=1;jettySize=auto;html=1;exitX=1;exitY=0.5;exitDx=0;exitDy=0;entryX=0.33;entryY=0.976;entryDx=0;entryDy=0;entryPerimeter=0;" parent="1" source="IYp7rGb173UTTwIkMacJ-3" target="PRDET2eJmKvod60C363v-1" edge="1">
          <mxGeometry relative="1" as="geometry" />
        </mxCell>
        <mxCell id="PRDET2eJmKvod60C363v-6" style="edgeStyle=orthogonalEdgeStyle;rounded=0;orthogonalLoop=1;jettySize=auto;html=1;exitX=0;exitY=0;exitDx=0;exitDy=0;entryX=0.429;entryY=0.75;entryDx=0;entryDy=0;entryPerimeter=0;" parent="1" source="PRDET2eJmKvod60C363v-1" target="6uXAJhKeQOaQSC9MLbms-33" edge="1">
          <mxGeometry relative="1" as="geometry" />
        </mxCell>
      </root>
    </mxGraphModel>
  </diagram>
</mxfile>
